<svg width="16" height="19" viewBox="0 0 16 19" fill="none" xmlns="http://www.w3.org/2000/svg">
<path d="M0 16.5625C0 17.5117 0.738281 18.25 1.6875 18.25H14.0625C14.9766 18.25 15.75 17.5117 15.75 16.5625V7H0V16.5625ZM2.25 9.8125C2.25 9.53125 2.49609 9.25 2.8125 9.25H6.1875C6.46875 9.25 6.75 9.53125 6.75 9.8125V13.1875C6.75 13.5039 6.46875 13.75 6.1875 13.75H2.8125C2.49609 13.75 2.25 13.5039 2.25 13.1875V9.8125ZM14.0625 2.5H12.375V0.8125C12.375 0.53125 12.0938 0.25 11.8125 0.25H10.6875C10.3711 0.25 10.125 0.53125 10.125 0.8125V2.5H5.625V0.8125C5.625 0.53125 5.34375 0.25 5.0625 0.25H3.9375C3.62109 0.25 3.375 0.53125 3.375 0.8125V2.5H1.6875C0.738281 2.5 0 3.27344 0 4.1875V5.875H15.75V4.1875C15.75 3.27344 14.9766 2.5 14.0625 2.5Z" fill="#7C58D3"/>
</svg>
